<svg id="6d7bf676-1074-42f6-a7ee-054a5f946551" data-name="Layer 1" xmlns="http://www.w3.org/2000/svg" viewBox="0 0 217.03 205.79"><title>logoAikido</title><path d="M216.93,103.13c-2.61-49.07-35-86.88-82.47-99.46C95.88-6.55,53.24,6.16,26.13,35.34c-32.33,34.8-34.92,88.81-7,126.86,27,36.77,76,51.06,119.33,39.4C184.88,189.13,213.19,149.86,216.93,103.13Z" transform="translate(0.1)" fill="#fff"/><path d="M216.93,103.13c-3.36,42.07-25.34,76.37-64.4,93.56-42.36,18.65-94.25,7.86-126-25.61C-5.89,136.83-8.18,85.41,17.36,46.76c21.83-33,63.71-50.7,102.76-46C173.78,7.19,214.09,49.6,216.93,103.13Zm-96.37,58.72c.3-1,5.69-6.86,6-4.23.3,2.46-4.43,1.45-3.18,4,1.42-.82,3.32-1.1,4.34-2.32,2.89-3.45-2.68-1.92-.44-4.2,3.76-3.84,9.53-2.63,13.26-6.16-3.73-.51-12.82,3.06-15.16.24,7.2-6.83,24.85,2.58,32-2.8-.53-.41-1.78-.68-1.62-1.3a46,46,0,0,1,8.57,2c1.41.54,4.33.08,5.48.75,1.94,1.13.88,3.75,2.32,5.31,1.43-1.82.8-12.32.54-14.58-.71-6.14-7.1-9.78-13.11-10.91,1.87,3.24-2.31,2.61-4.21,2.61q1.63-1,.4-2.4,1.33.19,2.67.35c0-2.39-3.29-1.51-4.09,0-1.35-1.68-3.07-3.58-3.48-5.22,2.33-.58,2,1.39,3.51,1.89,1.55-2.76-6.3-9.79-8.62-11.72-1.28-1.06-9.57-7.37-8.63-3.91-2.6.43-4.44-2-7-1.9-2.77.14-2.5,1.83-4.45,2.17-5.86,1-15.79-1.87-21.4,1.07a4.3,4.3,0,0,0,3.53,2.19c-2.76,2.12-7.85-.49-11,.83a4.41,4.41,0,0,0,2.2.8c-1.69,2.66-16.74,2.63-17.63,6.47,1.25.85,4.1.83,5.2-.33,2.29,2.5-9.7,4-9.8,5.81a1.71,1.71,0,0,0,1.76.84,2.4,2.4,0,0,0-1.7,2c4.23,0,9.5-8.05,13.87-5.69C88.76,124.68,79,129,78.45,130.33c2.68.46-5,8.11-7.69,10.18.56.68,13.79-11.67,16.68-11.62-4.2,7.32-17.31,13.38-15.56,23.95,0-.2,5-8.12,6.43-7.62-.37,3.42-15.32,23.21-8.68,26.32.12-1.46,2.69-7.93,3.93-7.77-.26,4.58-3.86,12.46-6.41,15.87,2.42.27,6.09-4.22,6.47-4.11-1.64,5.84.52.17,2.53,2-1.48,2.39-3.36,3.47-.7,4.64q-.85.93-1.72,1.84c1,.83,10.93-4.1,11.14-3.64.78,1.76-3.83,3.58-2.62,4.53,1.48,1.15,4-1.87,4.4-.92s-1.05,2.41-1.36,3.21c3-.33,4.94-2.74,7.78-3.51a12.55,12.55,0,0,1-3.2,5.87c2.49,1.78,3.89-2.22,4.71-2.18s1.64-2.25,3.68-1c2.35,1.4-1.31,4-.7,5.23a3.77,3.77,0,0,0,2.24.51,23.08,23.08,0,0,0-1.39,4.08c4.36-.28,7.35-11.5,12.26-7.63-.31-.24-.33,8.43-.37,8.47-.53-.52-.52-1.48-1.27-1.38,0,6.26,6-1,7.43-2.2,0,5.84-1.48,4.73,1.53,6.7,3.48,2.28,3.83,2.64,4.4-2.67,1.15,0,.35,3.65,1.07,4.7,1.12-1.29-.3-8.55,1.62-8.56s.22,2.58,1.45,2.66c.65-3.78,2.93-19.92-2.38-21.67a6.65,6.65,0,0,1-.53,2.45c-3.95-3.27,2.55-10.59,2.32-14.08-.12-1.85-5,7-5,7.06a25,25,0,0,1-2.62-1.22,1.73,1.73,0,0,1-1.24,1.79c-1.78-1.58.64-5.83,2.14-7.19a2.73,2.73,0,0,0,.66,1.77C121.3,165.52,123.27,161.9,120.56,161.85ZM118.27,81c1.69,0,2.76-.57,3.36.56a5.2,5.2,0,0,0,1.06-3.7c1.24,1.41-.27,1.41,1.8,2.7a3,3,0,0,1,.25-3.21c1.47.9-.86,2.54,1.67,2.92-.75-5.56-.92-10.13-4.26-14.7,2.19-1.63,5.31,7.5,6,8.69a15,15,0,0,0-.78-5.08c1.45-.42,1,2.91,2.38,3.1.6.09-1-4.24,1.92-2,1.94,1.48,1.25,4,2.53,4.68-.75,1.74,1.64,4,2.74,5.75.52-.37-1.07-3.65-.85-4.78,1.35,1,2.91,3,2.91,3.78q.62-.82,1.31,0c-.86-1.42,1.55-2.12-.54-3.32.57,2.89-1.77-.79-1.39-2,3.07,1.62.52-.71,1.2-1.62,2.43,2.8,4.57,8.59,8.25,9.78-1.59-6.09-1-.73,2-4.26-1.18.3-3.13-.56-2.17-2.54,6.87,6.16,7.94-25.57,7.58-29.24-.67-6.82-2-14-5.5-20-.29-.5-8.68-9.44-8.68-7.11a5.85,5.85,0,0,0,4-.14C122.92-4.2,87.38,1,60.63,13.37c-26,12-46.89,34.67-55,62.38-18.91,64.58,31.7,121.83,94.67,127.55-.24,1.28-30.64-12.29-33.36-14.39-11.66-9-16.7-23-15.93-37.59,1.54-29.35,27.23-40,52.38-45-2.34-4.53-6.81-7.27-9.21-11.51-4-7-2.5-6.82-11.38-5.22q-.52-1.85,2.7-.85-1.71.51-1.71-.67c2-.74,8.08-3.26,8.4-4-3.78-2.22,2.08-2.4,2.24-3.57-2.28-1.21-2.79-3.26-5.35-2,5.65.72-3.75,7-5.45,7.93-3.35,1.84-14.45,1.63-15.39,4.89-1.15-.92-4.13-4.86-4.13-3.45-2.73-1-10.9-7-9.23-10.66,2-4.49,11.22-.29,15.39-.29.09,1.22-3.36,1.82-4.09,3.23,4,.65,8.16,1.62,10.6,4.12,2-2.27,3.25-4.26,5.37-2.57,0-.17-2.68-2.15-2.5-2.54a5.09,5.09,0,0,0,4.1.71q-1.49-.35-1-1.15c1.33.27,4-2.36,6-1.42a3.91,3.91,0,0,0-2.86-1.59c2-1.57,6.26.42,7.12-.06-4-7.44,7.52,4,.69-1.55,0,2.78-.79,6.29,3.53,4.9a1.82,1.82,0,0,0-2-.48c2.88-3,1.9-2.06,5.41-.09-1.72-3.07-3.48-1.68-5.65-5.8q1.08.85,1.45-.1c-3.06-1.25.75,0-.81-1.76,4-.46.87-1.57.87-3.79,2.25.58,2.55-2.1,3.62,3.31q1.22.11,1-1.89c1.22.3-.58,2.08.26,3.1,1.71-1.81,1.1-3.76.43-5.87a3.34,3.34,0,0,0,1.69,1.63c0-2.48-.43-7.38-2-9.72-.95-1.46-5.7-4.77-3.28-1.34a5,5,0,0,0-4.62-1.42c1.19,1.8-.4,4.55-2.6,3.53.35-.44,1.71-.95,1.71-1.27-.88-.2-3.36.32-3.9,0,1.7-2,4.49-2.56,2.22-5.11-2.86,3.88-4.27,2.68-8.38,3.1-1.12-3.26.3-18.69,4.63-9.27q-2.77-.39-2.32,1.88c.08,1.5,3.88-3.23,4.68-.39-2.74,0-1.83,1.17-4.21,1.61,1.68,1.17,1.88,1.19,3.08-.33.75,1.79,2.72,1.63,1.93,2.91,2.09.84.81-2,3-.81-.47-3.26,1.79-1.55-.69-3.51.46,0,2.43.29,2.71-.29-.5,1-3.22-3.57-3.26-3.89,2.74,1.09,1.7,2.9,4.61.95-4.38-2.09,1.42-1.23,1.74.37a1.79,1.79,0,0,0-1.29.54c1.47.89,4.86,3.72,6,3.36-.21,1.61-.86,1.63.23,3,.41-3.75,5.47,6.4,5.61,3.38,1,1.31,12.09,10.91,8.34,10.91,1.44,2,1.79.82,3.19,2.87.13.19,5.77,8.25,2.33,8.83-.28-1.15-.3-4.37-2.1-4.71.73,2,1.13,2.67-.3,1.16-.47,2.16.7,2.29-.85,3.68-.42-1.3-1.29-6.18-3.59-6.63,2.21,5.07,1,6.23,1.7,10.6.07.46.87,6,1.63,6.19q.24-2.06,1.13,0C120.12,85.3,119.06,83.36,118.27,81ZM106.44,86.2a4.76,4.76,0,0,1,1.72-3.93c2,2.5-.32-1.43,2.34,2.38q-.41-2.36,1.27-1c.41-3.76-4-4.16-5.18-5.43-2.35,3.17-.7.79-3.56,1.82C104.67,81.06,106.24,84.31,106.44,86.2Zm26,108.81c-2-1.1-2,3.4-3.11,4.76-1.72-2,2.17-8.38-.06-11.55-.77,1.43-2.19,10.49-2.46,13C133.08,201.82,129.45,197.33,132.42,195ZM102,89.57c0-3,.19-.18,1.47-2.22-2-1.59-3.57-.78-5.62-.57-3.62.37-2,5.35-.6,2.26a7.48,7.48,0,0,0,1.86,2.24C99.66,90,100.25,88.29,102,89.57ZM65.3,84.41c-2.06-1.77-1.76-2.44-2.19-5.54-1.25,2.35,1.19,5-1.68,6,.73,2.6,11.94,2.3,14.42.72C76.06,86,66.56,84.87,65.3,84.41ZM61,77.24c1.47-3.38-5.74,1.21-5,1,2.16-.66,1.64-.76,3.64.5q.73-.65-.47-1.29ZM105.54,73c-2.14,1.48-.38,4.63,1,4Zm25.34,102s.35-2.22-.52-2.25c-1.15,0-.48,3.92,0,4.39A1.76,1.76,0,0,0,130.88,175Zm-14.09-84.9c-1.56-.93-2.55,3.82-2.59,4.87C115.79,93.95,116.19,91.74,116.79,90.08ZM86.54,51.59q-1.29.52.47,2c.74-.59,3.23-2.82.75-3.18C87.76,52.43,87.82,53.77,86.54,51.59Zm43.37,52.89c-.46-1-2.64-.57-3.13.25A2.39,2.39,0,0,0,129.92,104.48ZM76.71,123.65c.54.94,3.8-.23,3.78-1A3.46,3.46,0,0,0,76.71,123.65Zm55.75-36.81-.9-4.57C130.33,82.55,132.26,86.61,132.46,86.84Zm-6.15,84.49q-.78-2.24-1.23-.07Q125.5,173.77,126.32,171.33Zm2.17,8q.91,2.5,1.36.09Q129.49,177.1,128.49,179.37ZM128,91c-.79-.67-1.71,1.12-1.6,1.86Q127.79,92.7,128,91ZM104.74,87c0-1.27-.64-2.4-1.31-2.26C103.66,85.65,103.46,86.75,104.74,87ZM87.55,79.56c-.27-1.28-2.52.64-2.71.89Zm18-20.83c.45.58,1,2.3,1.61,2.19Q107.7,58.57,105.58,58.73Zm6.55,30.33.68,2.45C113.71,90.53,113.58,89.69,112.13,89.05ZM107.08,62c-.72.35.14,2,.56,2.43Q108.7,63.2,107.08,62ZM119.13,92.2a1.85,1.85,0,0,0,.2-2.47A1.81,1.81,0,0,0,119.13,92.2Zm-11.35-.71c.24-1,.5-2.07-.66-3.14ZM78.64,83.83l-2.49,1.3C77.9,85.13,78.76,84.57,78.64,83.83Zm52.79-12.06-.63-2C130,70.67,130.21,71.25,131.44,71.77Zm-12.88,96.17q1.21.5.87-1.21Q118,166.09,118.55,167.94ZM137.78,81c-.64.38.33,2.22,1.13,1.74ZM75.36,132.65c-.64-.5-1.4.73-1.48,1.28Q75,134,75.36,132.65Zm21.92,55.06c-.34-.64-1.48.51-1.47,1.07Q96.88,188.95,97.27,187.71ZM113.16,84.23c1-.35-.06-1.63-.63-1.82Z" transform="translate(0.1)"/><path d="M98.07,77q-1.44-2.11-2.82,1.54a1.82,1.82,0,0,1,2,.48c-4.32,1.38-3.53-2.12-3.53-4.9,6.83,5.55-4.7-5.9-.69,1.55-.88.49-5.24-1.42-7.12.06a3.91,3.91,0,0,1,2.86,1.59c-1.92-.94-4.64,1.69-6,1.42q-.53.8,1,1.15a5.09,5.09,0,0,1-4.1-.71c-.18.39,2.49,2.37,2.5,2.54C80,80,78.82,82,76.77,84.31c-2.44-2.5-6.61-3.46-10.6-4.12.77-1.49,4.18-2,4.09-3.23-4.13,0-13.4-4.08-15.39.29-1.72,3.8,6.57,9.66,9.23,10.66,0-1.66,3.12,2.64,4.13,3.45.94-3.26,12-3,15.39-4.89,1.71-.94,11.1-7.21,5.45-7.93,2.53-1.28,3,.74,5.35,2-.16,1.18-6.22,1.24-2.24,3.57-.32.75-6.39,3.27-8.4,4q0,1.18,1.71.67-3.22-1-2.7.85c8.88-1.6,7.43-1.77,11.38,5.22,2.4,4.24,6.87,7,9.21,11.51-25.34,5-50.59,15.63-52.38,45-.84,13.8,3.85,27.65,14.6,36.62,2.86,2.39,34.4,16.87,34.69,15.36-63-5.72-113.57-63-94.67-127.55,8.11-27.74,29-50.32,55-62.38C87.35,1,122.94-4.17,145,19.28a5.85,5.85,0,0,1-4,.14c0-3,7.41,5,7.44,5,4.57,5.64,6.05,15.14,6.73,22.1.37,3.78-.91,35.22-7.58,29.24-1,2,1,2.84,2.17,2.54-2.86,3.43-3.6-2-2,4.26-3.8-1.23-5.68-6.82-8.25-9.78-.68.91,1.87,3.24-1.2,1.62-.38,1.25,2,4.93,1.39,2,2.1,1.2-.32,1.9.54,3.32q-.7-.83-1.31,0c0-.81-1.54-2.81-2.91-3.78-.22,1.12,1.37,4.41.85,4.78-1.13-1.82-3.55-3.87-2.74-5.75-1.6-.82-.46-2.64-2.53-4.68,2,2-6.73-.4-4.3-1.1a15,15,0,0,1,.78,5.08c-.67-1.1-4.11-10.12-6-8.69,3.37,4.62,3.5,9.07,4.26,14.7-2.53-.37-.2-2-1.67-2.92a3,3,0,0,0-.25,3.21c-2.07-1.29-.56-1.29-1.8-2.7a5.2,5.2,0,0,1-1.06,3.7c-.66-1.26-1.61-.51-3.36-.56,1-4-.25-6.22-2-10.31,2.3.44,3.16,5.32,3.59,6.63,1.56-1.39.39-1.52.85-3.68,1.44,1.5,1,.87.3-1.16,1.8.34,1.82,3.56,2.1,4.71,3.43-.58-2.32-8.8-2.33-8.83-1-1.49-2.09-1.32-3.19-2.87,3.68,0-7.43-9.75-8.34-10.91-.14,3-5.21-7.05-5.61-3.38-1.08-1.35-.43-1.36-.23-3-1.22.37-4.43-2.39-6-3.36a1.79,1.79,0,0,1,1.29-.54c-.31-1.59-6.12-2.46-1.74-.37C94,45.93,95,44.13,92.29,43c.09.71,3,4.47,3.26,3.89-.28.58-2.25.24-2.71.29,2.48,2,.22.24.69,3.51-2.21-1.15-.93,1.65-3,.81.79-1.28-1.18-1.13-1.93-2.91-1.21,1.52-1.41,1.5-3.08.33,2.39-.45,1.48-1.61,4.21-1.61-.8-2.84-4.59,1.88-4.68.39q-.46-2.27,2.32-1.88c-4.3-9.36-5.76,6-4.63,9.27,4.11-.43,5.52.77,8.38-3.1,2.27,2.55-.52,3.12-2.22,5.11.54.28,3-.24,3.9,0,0,.32-1.36.83-1.71,1.27,2.3,1.07,3.74-1.81,2.6-3.53a5,5,0,0,1,4.62,1.42c-2.33-3.3,2.3-.17,3.28,1.34,1.7,2.61,2,7.08,2,9.72a3.34,3.34,0,0,1-1.69-1.63c.65,2,1.21,4.14-.43,5.87-.84-1,1-2.79-.26-3.1q.21,2-1,1.89c-.87-4.41-1.75-2.83-3.62-3.31,0,2.49,3,3.35-.87,3.79,1.57,1.73-2.24.51.81,1.76q-.37.95-1.45.1C95.73,74.07,97.36,75.93,98.07,77Zm2.17-69.73c-.46,5.22,2.71,9.44,2.28,14.51-.25,3-2.17,4.73-2.28,6.8-.72,13,9.91,2.25,5.86-1.23-.55,4.61-.68,4.81-3.37,6-3.9,1.75-.86-4.24-.9-4.67.16,1.84,3.09-3.39,3.21-4.45.34-3-2.08-7-2.72-9.84,6.37.69,3.8,10.08,4.81,13.42,1.55-.22-.62-2,1.7-.52a6.86,6.86,0,0,1-1.62-2.91c2.2-.31,2.66-3.3,2.59-3.75.16,1-.61,3.51.15,3.88,2-3.13,1.47-3,.54-6.69,7.55,4.62-.08-9-3-4.89a5.1,5.1,0,0,1,3.81,3q-1.56,1-2.76-1.21c-.7.68,1.35,2,.11,3.67C107.79,13.85,104.12,10.29,100.24,7.31ZM84.95,6.24A11.57,11.57,0,0,0,89.17,16c.6-.62-.29-1.78-.36-2.47a2.4,2.4,0,0,1,1.79,1.37C92.84,13.44,84.86,7.24,84.95,6.24Zm27,21.82c.89-.32-.26-1.32-.75-.61.48-3.07-1.51-.07-2.6,1.09.16.26,3.44.43,4,.62-1.79,1.85.11,4.2-2.85,2.1.41,3,8.82.17,2.84-2.5q1.84-.13,1.39-1.14Zm5.06,8.8c2.23-1.23,4.57-1.91,4.09-5.11-2.66,4.53-4.41,2.83-5.11,8.12,1.5.3.06-1.73,2.35.27.23-2.3,2.32-2.67,2.53-4.9A2.77,2.77,0,0,1,117,36.87ZM127.7,58.93c.71,0,5.67-2.13,2.3-2.79q.55,1.86-.71,1.85c.06-.65-1.8-4.89-2.66-4.89-2,0,1.83,5.22,1.9,4.38Q126.87,55.55,127.7,58.93ZM77.48,30.81c-.24,1-4.81,11.58-2.18,12.39C71.46,42,82.12,30.57,77.48,30.81Zm4.75-5.45c1.34.79,6-3.29,5.07-5.33-1.8,1.08-6.37,8.29-7,8.47A3.14,3.14,0,0,0,82.23,25.36Zm38,16.25c-1.51,0,1.75-3,1.75-4.14-1.82.3-4.12,5.11-3.42,7Q121.1,45.13,120.22,41.6ZM117.72,29c.48-.15-.09,5.26-3.17,2.66,0,3.83,2.81.83,4.72-.3ZM74.79,55c1.7-.9,2.68-5.95,1.17-7.3Zm57.93,8.68a11.45,11.45,0,0,0,3.82,5.49C137,67.12,133.86,64.87,132.71,63.65ZM113.29,21.16c-.07.15-2.55,5.18.29,4.91-.59-3,.08-2.57.81-4.35q-1.21.59-1.36-1.76C112,20.91,112,20.95,113.29,21.16Zm6.21-6.88c-1.94-2.55-5-2.75-7.52-4.32C111.62,10.67,119.39,14.23,119.49,14.28ZM69.21,91.56c2.51.82,5,2.08,7.8.59C74.35,91.84,71.7,92.6,69.21,91.56Zm55.68-24.81c.13.59-.85-4.41-1.37-4.06C124,64.33,120.63,65.2,124.89,66.75Zm-13.32-29.7c-.06.11.78,3.64.79,3.65C112.82,38.22,114.59,40.24,111.58,37.05Zm-1,3.21c0-.16-.31-3.88-.67-3Q108.32,39.15,110.56,40.27Zm22.71-21.47c.59-1-2.45-1.78-3.27-1.19A4.76,4.76,0,0,0,133.27,18.79ZM114.79,34.42c-1.43.6,1.08,1.63-.8,2q.51-3.34-1.9-2.18a7.5,7.5,0,0,0,2.7,2.7Zm-48,39c-.35,0-3.05.06-3,.7C69.25,74.16,67.51,72.24,66.81,73.46ZM90.92,60.93q.22-3.21-1.75-2.34A2.46,2.46,0,0,0,90.92,60.93Zm31.76-45.41q-.6,2.78,5.15,1.69a28.69,28.69,0,0,1-4.23-2.63Q124.23,16.28,122.68,15.52ZM88,16.07q-2.48,1.72-.35,3.46A9.69,9.69,0,0,1,88,16.07Zm33.75,47.82c.45-.81-.05-1.64-1.84-2.81ZM78.17,78.26q-.83-1.38-3,.16a.94.94,0,0,1,.58,1.36ZM94,37q-2.24.86.33,1.49Q95.76,37.84,94,37Zm.32,21.1-1.92,1.27Q96.9,60.57,94.3,58.15Zm36.6,1.41c0,1.45.91,2.44,2.2,2.23ZM79.16,75.62l-2.45-.22C76.61,76.51,78.78,76,79.16,75.62Zm16.2-13.53c-.8.64.9,2.28,1.56,1.69ZM58.71,73.17c.68.58,2.57-2.38,2.25-2.65Zm22-43.86-1.86-.39Q79.24,31.74,80.76,29.3Zm53.12,43.13c.91-.52-.58-2-1.22-2.1ZM99,38.59q1.12-.08.36-1.64Q97.49,37.16,99,38.59ZM72.57,78.31c.67.68,1.9-.8,1.82-1.56Zm-8.48-10.5q-1.23-1.34-2.28,2Q63.1,71.15,64.09,67.81Zm54.39-40.21c-.12-1.22-.39-1.47-1.71-1.63Z" transform="translate(0.1)" fill="#fff"/><path d="M120.56,161.85c2.71,0,.74,3.68-.66,3.34a2.73,2.73,0,0,1-.66-1.77c-1.46,1.32-3.78,5.73-2.14,7.19a1.73,1.73,0,0,0,1.24-1.79A25,25,0,0,0,121,170c.37-1,4.91-8.41,5-7.06.22,3.41-6.18,10.89-2.32,14.08a6.64,6.64,0,0,0,.53-2.45c5.45,1.8,3,17.75,2.38,21.67-1.23-.08.46-2.67-1.45-2.66-2.17,0-.24,7-1.62,8.56-.72-1.05.08-4.71-1.07-4.7-.56,5.24-1.13,4.8-4.4,2.67s-1.53-.69-1.53-6.7c-1.76,1.49-7.43,8.3-7.43,2.2.74-.1.74.86,1.27,1.38,0,0,.07-8.71.37-8.47-4.85-3.82-7.78,7.35-12.26,7.63a23.08,23.08,0,0,1,1.39-4.08,3.77,3.77,0,0,1-2.24-.51c-.78-1.59,3.42-3.6.7-5.23-2.38-1.42-2.22,1-3.68,1-1,0-2.18,4-4.71,2.18a12.55,12.55,0,0,0,3.2-5.87c-2.84.77-4.83,3.18-7.78,3.51.31-.8,1.77-2.29,1.36-3.21s-2.92,2.08-4.4.92c-1.21-.94,3.41-2.77,2.62-4.53-.34-.76-10.08,4.51-11.14,3.64q.87-.91,1.72-1.84c-2.66-1.17-.78-2.25.7-4.64-2-1.85-4.17,3.81-2.53-2-.38-.12-4.05,4.38-6.47,4.11,2.62-3.5,6.14-11.21,6.41-15.87-1.24-.16-3.79,6.07-3.93,7.77-6.64-3.11,8.31-22.9,8.68-26.32-.92-.31-6.52,7.09-6.43,7.62-1.77-10.64,11.34-16.59,15.56-23.95-2.89,0-16.12,12.31-16.68,11.62,2.68-2.07,10.18-9.75,7.69-10.18.56-1.29,10.31-5.65,12.19-6.72-4.32-2.33-9.73,5.71-13.87,5.69a2.4,2.4,0,0,1,1.7-2,1.71,1.71,0,0,1-1.76-.84c.1-1.8,12.09-3.3,9.8-5.81-1.1,1.16-3.94,1.18-5.2.33.89-3.86,16-3.93,17.63-6.47a4.41,4.41,0,0,1-2.2-.8c3.15-1.32,8.24,1.3,11-.83a4.3,4.3,0,0,1-3.53-2.19c5.59-2.94,15.56-.06,21.4-1.07,1.81-.31,1.1-2.55,3.78-2.55s4.88,2.74,7.68,2.28c-.95-3.46,7.35,2.85,8.63,3.91,2.33,1.93,10.17,9,8.62,11.72-1.51-.51-1.17-2.47-3.51-1.89.29,1.13,2.69,4.23,3.48,5.22.78-1.47,4.08-2.23,4.09,0q-1.34-.16-2.67-.35,1.23,1.38-.4,2.4c1.9,0,6.09.63,4.21-2.61,6.07,1.14,12.39,4.72,13.11,10.91.25,2.17.79,12.88-.54,14.58-1.43-1.54-.39-4.18-2.32-5.31-1.26-.74-4-.17-5.48-.75a43.16,43.16,0,0,0-8.57-2c-.16.62,1.09.89,1.62,1.3-7.1,5.36-24.8-4-32,2.8,2.34,2.82,11.43-.74,15.16-.24-3.73,3.52-9.5,2.32-13.26,6.16-2.24,2.29,3.33.75.44,4.2-1,1.22-2.93,1.5-4.34,2.32-1.25-2.58,3.48-1.57,3.18-4-.05-.44-8.31,2.71-6.45,6ZM80.38,143.36q-2.5-.71-1.63,1.57c1.63.1,3-2.22,1.92-3.51Zm45.74-6.48c0-1.63,2.38-1.07,3.47-.37a7,7,0,0,0-1.82,1.25c0,1.56,5.61,2.13,6.63,1.48a4.29,4.29,0,0,0-2-1c8.06-3.3,2-3.8,3.6-8.36,1.56,1.5.51,1.89,2.93,0,1.28,5.36,8.74-2.4,8.37-2.75-.46,1.69-12.94-1.43-14.79-1.63-2.85-.31-4.43-.92-6.87-.34-2.09.5-2,1.87-3.81,2.41-2.7.82-5.61-.92-8.08.81a24.35,24.35,0,0,1,6.82,2.08c-1.82.07-17.25-1.39-18.25.46,0,.08,18,3.1,18.23-.48,2,2,3.72,3.37,5.62,5.62-2.63.32-2.66.73,0,.86,0-.23-3.76,2.9-2.59,2.79S127.7,138.51,126.12,136.88Zm-43.94,8.26a16.9,16.9,0,0,0,4.74-4.5c-2.94-.82-5.64,4.38-5.44,6.13Q82.72,147,82.18,145.14ZM122.1,180a26.86,26.86,0,0,0-1.06-6.25c-1.19.19-1.36,6.14,1.09,6.21-1.08,1.62-4.49,5.76-2.06,8a72.57,72.57,0,0,0,3.69-7.9C124.06,178.62,122.43,179.8,122.1,180Zm4.68-39.54c-6.91.88-13-2.33-19.34-2.12-1,0-10.48,3.37-6.06,4a60.07,60.07,0,0,1,7.25-2.11c3.84-.18,2.86.7,5.55,1.13,6.6,1,10.49-1,15.7-1A2.11,2.11,0,0,0,126.78,140.42Zm25.73,4.48c.09-1.43-23.29-3.62-24.38-1.87C134.2,145.28,146.05,145.79,152.51,144.9Zm7.24.61a2.16,2.16,0,0,0,3.16-.72c-3.83-2.89-11-5.47-15.73-2.92C148.06,142.37,161.59,141.73,159.75,145.52Zm-50.57,27.72c2.56-.86,5.1-7.44,5.39-10.37C112.4,163.59,108.32,171.15,109.18,173.24Zm54.12-30.75c.24.41,6.37,6.83,6.5,3.46C169.88,143.85,164.53,142.49,163.3,142.49Zm-8.83-9.29.32,1.73a15.39,15.39,0,0,1,5-2.76,3.73,3.73,0,0,0-4.86.91q-1.2-.73.32-2.27c-1.22-.46-1.52,1.13-3.4.83a3.69,3.69,0,0,1,1.28,2.54ZM134.4,146.81c.23-2.16-7.88-1.48-9.29-1.72C126.67,148.35,131.51,147,134.4,146.81Zm28.66-11c0-1.29-2.12-.28-1-2.39-1.9-.68-5.11,1.9-6.66,3C158.14,136.73,160.39,136.14,163.06,135.86Zm-14.21,4.6c0,1.53,4.84-1.57,3.47-1.61-1.62,0-10,1-10.14,2.38C142.11,141.82,148.12,140.46,148.85,140.46ZM73.22,157.25c-.87,1.76-4.46,8.25-3,9.8C71.79,165.3,73.73,159.24,73.22,157.25Zm36.7-24.67c1,1.48,5.2,3.32,6.71,1.83C114.44,134.07,111.9,132.06,109.92,132.58Zm-3.79,21.85c1.25,2.2-1.22,1.57-.86,2.2C107.41,160.25,109.92,153.88,106.13,154.43Zm28.27-12.18c1.35-.08,4.84-.51,5.92-1.22C137.87,139.39,136.11,140.56,134.41,142.25Zm-41.86-23a3.37,3.37,0,0,0-4.75,1C89.63,121.26,90.89,119.76,92.55,119.2Zm22.89,51.69c-1.66-.13-1.78,4.26-1.22,5.19A9.1,9.1,0,0,0,115.43,170.89ZM109,151.48c0,.37,2.46-.31,2.73-.54-1.08-.89-4.35-.84-5.41.07A2.52,2.52,0,0,0,109,151.48Zm.82,12.09c1.1,1.94,3-1.78,2.63-3.37A5.33,5.33,0,0,0,109.79,163.57Zm-5.25-1.68q2.07,0,2.3-2.49C106.75,159.58,102.91,159.17,104.54,161.89ZM160.3,131q1.11,1.9,2.86.91-1.31-.91,0-1.79Q161.42,129,160.3,131Zm-41.7,6.77c0-.28-2.54.2-2.82.38,1.09,1,4.21.9,5.36,0A2.51,2.51,0,0,0,118.6,137.77Zm-1.66,51.38q-2.22.55-.26,4.18Q119.56,191.42,116.94,189.15Zm-7.69-19.72c-1.49-2.22-2,1-2.21,2.75C106.94,173.22,109.29,169.37,109.25,169.43Zm1.35-14.3c.37,0,3-2.16,1.81-2.39C111.46,152.54,109.29,154.53,110.6,155.12Zm-6.76-2.37-3.51.87C101.25,154.57,104.35,154.72,103.84,152.75Zm14.58,19.76a3,3,0,0,0-.75,3.34Q119.92,175.67,118.42,172.51Zm-14.78-38.4q-1.34-1.85-2.26,0Q102.34,136.18,103.64,134.11Zm19.53,17.39c0-.37-1.61.42-1.71.52a2.87,2.87,0,0,0,3.45,0A1.41,1.41,0,0,0,123.17,151.5ZM87.71,138.07q-.6-1.37-2.46-.06C86.7,140,86.24,140.08,87.71,138.07Zm15.9,27.42q-1.21-1.77-2.25-.1Q102.25,167.13,103.61,165.49Zm1.93-30.28C104.74,133.64,105,135.21,105.54,135.21ZM85,151.22q-.8-1.64-1.88.72Q84.37,153.32,85,151.22Zm36.82-6.16q-1.23-1.44-2.26,0Q120.45,146.88,121.8,145.06Zm-19.53,2.61a1.88,1.88,0,0,0-3,0Zm47.6-17.54s-1.48-3.34-.94.77C149.12,132.34,149.88,130.06,149.88,130.13Zm-34.7,14.16C114.38,143.06,114.39,144.23,115.17,144.28Zm5.14,11.45q-1.43,1.07-.22,1.9Q122.17,156.63,120.31,155.74ZM145,145.22h-2.73C143.17,146.27,144.42,146.24,145,145.22Zm-27.57,5c-.36-1-1.63-.67-1.77.42C115.47,152.06,117.26,150.36,117.41,150.26Zm9.09,4.85c0-.83-2.34-1-2.23-.35A1.71,1.71,0,0,0,126.5,155.11ZM74.76,145.06a3.92,3.92,0,0,0,1.55-1.42C75.07,142.81,74.83,144,74.76,145.06Zm29,19.36q.77,1.56,1.24.14Q104.47,162.63,103.8,164.42ZM93.69,145.86q-.89-1.49-1.18.06Q92.93,147.65,93.69,145.86ZM74.93,156.11q-.65-1.71-1.25-.07Q74,157.73,74.93,156.11Zm44.91,45.57q1.44,0,.36-1.53Q118.94,200.21,119.84,201.68ZM76.52,181.93q1.72-.6,0-1Q74.92,181.3,76.52,181.93Zm34.71,12.46c.68,0,.59-1.46,0-1.66A1.22,1.22,0,0,0,111.23,194.39Zm25.4-56.73c-1.22-.76-.72,1-.14,1Q138,138.32,136.63,137.66Zm-15-2.68c.72,0,.57-1.47,0-1.75A1.37,1.37,0,0,0,121.63,135ZM119,170.86q-1.38.17.1,1.89Z" transform="translate(0.1)" fill="#fff"/><path d="M106.44,86.2c-.2-1.89-1.77-5.14-3.4-6.16,2.86-1,1.21,1.35,3.56-1.82,1.3,1.44,5.63,1.39,5.18,5.43q-1.68-1.34-1.27,1c-2.66-3.82-.33.12-2.34-2.38A4.76,4.76,0,0,0,106.44,86.2Z" transform="translate(0.1)" fill="#fff"/><path d="M132.42,195c-3.06,2.39.83,6.83-5.63,6.2.28-2.63,1.33-10.91,2.46-13,2.24,3.17-1.66,9.55.06,11.55C130.39,198.48,130.34,193.86,132.42,195Z" transform="translate(0.1)" fill="#fff"/><path d="M102,89.57c-1.78-1.28-2.37.4-2.9,1.71A17.85,17.85,0,0,1,97.27,89c-1.35,3.09-3-1.88.6-2.26,2.06-.21,3.64-1,5.62.57C102.22,89.39,102,86.52,102,89.57Z" transform="translate(0.1)" fill="#fff"/><path d="M65.3,84.41c1.26.46,10.77,1.62,10.56,1.19-2.48,1.58-13.68,2-14.42-.72,2.86-1,.43-3.66,1.68-6C63.53,82,63.24,82.64,65.3,84.41Z" transform="translate(0.1)" fill="#fff"/><path d="M61,77.24l-1.79.18q1.2.64.47,1.29c-2-1.26-1.48-1.16-3.64-.5C54.84,78.58,62.72,73.33,61,77.24Z" transform="translate(0.1)" fill="#fff"/><path d="M118.27,81c.79,2.31,1.86,4.26,2.43,6.43q-.89-2-1.13,0C118.27,87.23,118.21,81.4,118.27,81Z" transform="translate(0.1)" fill="#fff"/><path d="M105.54,73l1,4C105,77.73,103.66,74.31,105.54,73Z" transform="translate(0.1)" fill="#fff"/><path d="M130.88,175a1.76,1.76,0,0,1-.54,2.15c-.47-.47-1.14-4.43,0-4.39C131.23,172.76,130.85,175,130.88,175Z" transform="translate(0.1)" fill="#fff"/><path d="M116.79,90.08c-.61,1.66-1,3.87-2.59,4.87C114.24,93.9,115.23,89.15,116.79,90.08Z" transform="translate(0.1)" fill="#fff"/><path d="M86.54,51.59c1.28,2.18,1.22.84,1.22-1.19,2.48.36,0,2.59-.75,3.18Q85.25,52.11,86.54,51.59Z" transform="translate(0.1)" fill="#fff"/><path d="M129.92,104.48a2.39,2.39,0,0,1-3.13.25C127.28,103.91,129.45,103.5,129.92,104.48Z" transform="translate(0.1)" fill="#fff"/><path d="M76.71,123.65a3.46,3.46,0,0,1,3.78-1C80.51,123.43,77.24,124.59,76.71,123.65Z" transform="translate(0.1)" fill="#fff"/><path d="M132.46,86.84c-.2-.23-2.13-4.29-.9-4.57Z" transform="translate(0.1)" fill="#fff"/><path d="M126.32,171.33q-.82,2.44-1.23-.07Q125.53,169.09,126.32,171.33Z" transform="translate(0.1)" fill="#fff"/><path d="M128.49,179.37q1-2.27,1.36.09Q129.4,181.87,128.49,179.37Z" transform="translate(0.1)" fill="#fff"/><path d="M98.07,77q1.75-3,2.59,1.44Q97.93,75.55,98.07,77Z" transform="translate(0.1)" fill="#fff"/><path d="M128,91q-.19,1.71-1.6,1.86C126.27,92.11,127.19,90.32,128,91Z" transform="translate(0.1)" fill="#fff"/><path d="M104.74,87c-1.28-.3-1.08-1.39-1.31-2.26C104.1,84.64,104.75,85.78,104.74,87Z" transform="translate(0.1)" fill="#fff"/><path d="M87.55,79.56l-2.71.89C85,80.19,87.28,78.27,87.55,79.56Z" transform="translate(0.1)" fill="#fff"/><path d="M105.58,58.73q2.12-.15,1.61,2.19C106.57,61,106,59.31,105.58,58.73Z" transform="translate(0.1)" fill="#fff"/><path d="M112.13,89.05c1.45.64,1.58,1.48.68,2.45Z" transform="translate(0.1)" fill="#fff"/><path d="M107.08,62q1.62,1.25.56,2.43C107.22,63.92,106.36,62.31,107.08,62Z" transform="translate(0.1)" fill="#fff"/><path d="M119.13,92.2a1.81,1.81,0,0,1,.2-2.47A1.85,1.85,0,0,1,119.13,92.2Z" transform="translate(0.1)" fill="#fff"/><path d="M107.78,91.49l-.66-3.14C108.29,89.42,108,90.47,107.78,91.49Z" transform="translate(0.1)" fill="#fff"/><path d="M78.64,83.83c.12.74-.74,1.3-2.49,1.3Z" transform="translate(0.1)" fill="#fff"/><path d="M131.44,71.77c-1.22-.52-1.43-1.1-.63-2Z" transform="translate(0.1)" fill="#fff"/><path d="M118.55,167.94q-.52-1.85.87-1.21Q119.76,168.44,118.55,167.94Z" transform="translate(0.1)" fill="#fff"/><path d="M137.78,81l1.13,1.74C138.1,83.27,137.13,81.43,137.78,81Z" transform="translate(0.1)" fill="#fff"/><path d="M75.36,132.65Q75,134,73.88,133.93C74,133.39,74.72,132.16,75.36,132.65Z" transform="translate(0.1)" fill="#fff"/><path d="M97.27,187.71q-.4,1.23-1.47,1.07C95.8,188.22,96.94,187.08,97.27,187.71Z" transform="translate(0.1)" fill="#fff"/><path d="M113.16,84.23l-.63-1.82C113.1,82.59,114.13,83.88,113.16,84.23Z" transform="translate(0.1)" fill="#fff"/><path d="M100.24,7.31c3.88,3,7.54,6.54,8.42,11.11,1.24-1.63-.81-3-.11-3.67q1.2,2.25,2.76,1.21a5.1,5.1,0,0,0-3.81-3c2.92-4.15,10.55,9.51,3,4.89.93,3.61,1.34,3.69-.54,6.69-.76-.37,0-2.92-.15-3.88.07.45-.39,3.44-2.59,3.75a6.86,6.86,0,0,0,1.62,2.91c-2.32-1.44-.15.3-1.7.52-1-3.34,1.56-12.73-4.81-13.42.64,2.79,3.06,6.88,2.72,9.84-.12,1.06-3.06,6.28-3.21,4.45,0,.43-3,6.43.9,4.67,2.69-1.21,2.82-1.41,3.37-6,4.08,3.51-6.51,14-5.86,1.23.1-1.92,2.23-2.9,2.57-5.42C103.53,17.93,99.76,12.77,100.24,7.31Z" transform="translate(0.1)"/><path d="M84.95,6.24c-.12,1.33,7.89,7.2,5.66,8.7a2.4,2.4,0,0,0-1.79-1.37c.07.69,1,1.85.36,2.47A11.57,11.57,0,0,1,84.95,6.24Z" transform="translate(0.1)"/><path d="M111.95,28.07l2-.43q.45,1-1.39,1.14c6,2.66-2.48,5.18-2.84,2.5,3,2.1,1.05-.25,2.85-2.1-.52-.19-3.8-.36-4-.62,1.06-1.12,3.12-4.42,2.6-1.09C111.68,26.75,112.83,27.75,111.95,28.07Z" transform="translate(0.1)"/><path d="M117,36.87a2.77,2.77,0,0,0,3.86-1.63c-.21,2.28-2.29,2.53-2.53,4.9-1.9-1.66-1.19,0-2.35-.27.71-5.3,2.45-3.6,5.11-8.12C121.6,35.11,119.24,35.63,117,36.87Z" transform="translate(0.1)"/><path d="M127.7,58.93q-.83-3.38.83-1.46c-.07.84-3.93-4.39-1.9-4.38.71,0,2.71,4.38,2.66,4.89q1.25,0,.71-1.85C133.36,56.8,128.41,58.93,127.7,58.93Z" transform="translate(0.1)"/><path d="M77.48,30.81c4.64-.24-6,11.22-2.18,12.39C72.67,42.39,77.24,31.82,77.48,30.81Z" transform="translate(0.1)"/><path d="M82.23,25.36a3.14,3.14,0,0,1-1.89,3.14c.56-.17,5.1-7.36,7-8.47C88.23,22.07,83.57,26.15,82.23,25.36Z" transform="translate(0.1)"/><path d="M120.22,41.6q.88,3.53-1.66,2.9c-.71-1.93,1.6-6.74,3.42-7C122,38.5,118.64,41.6,120.22,41.6Z" transform="translate(0.1)"/><path d="M117.72,29l1.55,2.36c-1.92,1.13-4.72,4.13-4.72.3C117.63,34.27,118.19,28.87,117.72,29Z" transform="translate(0.1)"/><path d="M74.79,55,76,47.67C77.47,49,76.49,54.07,74.79,55Z" transform="translate(0.1)"/><path d="M132.71,63.65c1.14,1.22,4.29,3.47,3.82,5.49A11.45,11.45,0,0,1,132.71,63.65Z" transform="translate(0.1)"/><path d="M113.29,21.16C112,20.95,112,20.91,113,20q.14,2.35,1.36,1.76c-.76,1.85-1.36,1.51-.81,4.35C110.74,26.34,113.22,21.31,113.29,21.16Z" transform="translate(0.1)"/><path d="M119.49,14.28c-.1-.05-7.88-3.61-7.52-4.32C114.52,11.53,117.56,11.73,119.49,14.28Z" transform="translate(0.1)"/><path d="M69.21,91.56c2.49,1,5.14.28,7.8.59C74.21,93.64,71.73,92.38,69.21,91.56Z" transform="translate(0.1)"/><path d="M124.89,66.75c-4.26-1.55-.86-2.42-1.37-4.06C124,62.34,125,67.34,124.89,66.75Z" transform="translate(0.1)"/><path d="M111.58,37.05c3,3.19,1.24,1.16.79,3.65C112.36,40.69,111.52,37.16,111.58,37.05Z" transform="translate(0.1)"/><path d="M110.56,40.27q-2.24-1.12-.67-3C110.25,36.38,110.56,40.11,110.56,40.27Z" transform="translate(0.1)"/><path d="M133.27,18.79A4.76,4.76,0,0,1,130,17.6C130.82,17,133.86,17.83,133.27,18.79Z" transform="translate(0.1)"/><path d="M114.79,34.42v2.52a7.5,7.5,0,0,1-2.7-2.7q2.41-1.16,1.9,2.18C115.87,36,113.37,35,114.79,34.42Z" transform="translate(0.1)"/><path d="M66.81,73.46c.7-1.22,2.44.7-3,.7C63.75,73.48,66.53,73.43,66.81,73.46Z" transform="translate(0.1)"/><path d="M90.92,60.93a2.46,2.46,0,0,1-1.75-2.34Q91.14,57.72,90.92,60.93Z" transform="translate(0.1)"/><path d="M122.68,15.52q1.54.76.92-.94a28.69,28.69,0,0,0,4.23,2.63Q122.08,18.3,122.68,15.52Z" transform="translate(0.1)"/><path d="M88,16.07a9.69,9.69,0,0,0-.35,3.46Q85.54,17.79,88,16.07Z" transform="translate(0.1)"/><path d="M121.76,63.89l-1.84-2.81C121.71,62.25,122.21,63.08,121.76,63.89Z" transform="translate(0.1)"/><path d="M78.17,78.26,75.8,79.79a.94.94,0,0,0-.58-1.36Q77.35,76.88,78.17,78.26Z" transform="translate(0.1)"/><path d="M94,37q1.79.79.33,1.49Q91.73,37.91,94,37Z" transform="translate(0.1)"/><path d="M94.3,58.15q2.6,2.42-1.92,1.27Z" transform="translate(0.1)"/><path d="M130.89,59.55l2.2,2.23C131.8,62,130.9,61,130.89,59.55Z" transform="translate(0.1)"/><path d="M79.16,75.62c-.38.42-2.55.89-2.45-.22Z" transform="translate(0.1)"/><path d="M95.36,62.08l1.56,1.69C96.26,64.37,94.56,62.73,95.36,62.08Z" transform="translate(0.1)"/><path d="M58.71,73.17,61,70.52C61.28,70.79,59.39,73.75,58.71,73.17Z" transform="translate(0.1)"/><path d="M80.76,29.3q-1.52,2.43-1.86-.39Z" transform="translate(0.1)"/><path d="M133.88,72.43l-1.22-2.1C133.29,70.4,134.78,71.91,133.88,72.43Z" transform="translate(0.1)"/><path d="M99,38.59q-1.56-1.43.36-1.64Q100.16,38.51,99,38.59Z" transform="translate(0.1)"/><path d="M72.57,78.31l1.82-1.56C74.47,77.51,73.24,79,72.57,78.31Z" transform="translate(0.1)"/><path d="M64.09,67.81q-1,3.34-2.28,2Q62.86,66.47,64.09,67.81Z" transform="translate(0.1)"/><path d="M118.48,27.59,116.76,26C118.09,26.12,118.36,26.38,118.48,27.59Z" transform="translate(0.1)"/><path d="M126.16,136c-3.79-4.48-6.73-6.53-12.42-7.67,2.29-1.6,5.57,0,8.08-.81,1.26-.41,1.44-2.12,3-2.41,3.08-.57,4.21,0,7.66.35,1.87.16,14.33,3.3,14.79,1.63.37.35-7.09,8.11-8.37,2.75-2.42,1.93-1.37,1.54-2.93,0-1.58,4.56,4.46,5.06-3.6,8.36a4.29,4.29,0,0,1,2,1c-.71.45-6.66.09-6.63-1.48a7,7,0,0,1,1.82-1.25A5.77,5.77,0,0,0,126.16,136Zm4-2.71c5.09.59,3.34-8.4-2.09-5.71C124.08,129.54,127.67,132.12,130.16,133.28Zm1.54,3.42a3.62,3.62,0,0,0,3.47-.8C134.54,136.1,132.92,133.76,131.7,136.7Zm-8.59-5.31c1.52.09,1-2.73.43-2.58Q122.26,129.61,123.12,131.39Zm2.94,1.58c-.66-1-1.2-1-2,0Z" transform="translate(0.1)"/><path d="M126.75,140.39c-.78,3.34-10.62,1.36-13.23,1-5-.78,5.86-1.65-4.89-1.11a61.08,61.08,0,0,0-7.25,2.11c-4.48-.68,5.92-4.35,7-4.4C114.13,137.7,120.6,140.43,126.75,140.39Z" transform="translate(0.1)"/><path d="M152.51,144.9c-6.46.89-18.31.38-24.38-1.87C129.23,141.26,152.61,143.25,152.51,144.9Z" transform="translate(0.1)"/><path d="M159.75,145.52c1.83-3.77-11-2.75-12.57-3.64,4.84-2.62,11.79-.06,15.73,2.92A2.16,2.16,0,0,1,159.75,145.52Z" transform="translate(0.1)"/><path d="M117.4,131.49c-1.54,1.87-15.47.06-15.09-.64C104,127.73,114.95,131.46,117.4,131.49Z" transform="translate(0.1)"/><path d="M109.18,173.24c-.85-2.09,3.23-9.65,5.39-10.37C114.28,165.8,111.73,172.38,109.18,173.24Z" transform="translate(0.1)"/><path d="M163.3,142.49c.93,0,6.58,1.4,6.5,3.46C169.67,149.31,163.54,142.9,163.3,142.49Z" transform="translate(0.1)"/><path d="M154.47,133.19l-1.39,1a3.69,3.69,0,0,0-1.28-2.54c1.81.29,2.16-1.3,3.4-.83q-1.52,1.54-.32,2.27a3.73,3.73,0,0,1,4.86-.91,15.39,15.39,0,0,0-5,2.76Z" transform="translate(0.1)"/><path d="M134.4,146.81c-2.89.2-7.73,1.54-9.29-1.72C126.52,145.33,134.63,144.65,134.4,146.81Z" transform="translate(0.1)"/><path d="M163.06,135.86c-2.64.28-5,.87-7.66.65,1.61-1.18,4.62-3.77,6.66-3C160.94,135.57,163.06,134.57,163.06,135.86Z" transform="translate(0.1)"/><path d="M148.85,140.46c-.62,0-6.75,1.47-6.67.77.15-1.33,8.53-2.42,10.14-2.38C153.69,138.89,148.85,142,148.85,140.46Z" transform="translate(0.1)"/><path d="M73.22,157.25c.56,2.2-1.39,8-3,9.8C68.78,165.52,72.35,159,73.22,157.25Z" transform="translate(0.1)"/><path d="M122.1,180c.33-.16,2-1.34,1.66.06-.12.57-3.48,7.62-3.69,7.9C117,185.08,122.1,181.8,122.1,180Z" transform="translate(0.1)"/><path d="M82.21,145.17c-.7-2,2.8-5.06,4.71-4.53A18.82,18.82,0,0,1,82.21,145.17Z" transform="translate(0.1)"/><path d="M122.14,179.93c-2.43-.07-2.33-6-1.09-6.21A22.45,22.45,0,0,1,122.14,179.93Z" transform="translate(0.1)"/><path d="M109.92,132.58c2-.51,4.52,1.49,6.71,1.83C115.15,135.87,110.92,134.05,109.92,132.58Z" transform="translate(0.1)"/><path d="M106.13,154.43c3.76-.54,1.27,5.82-.86,2.2C104.91,156,107.38,156.63,106.13,154.43Z" transform="translate(0.1)"/><path d="M134.41,142.25c1.7-1.68,3.46-2.85,5.92-1.22C139.33,141.68,135.81,142.16,134.41,142.25Z" transform="translate(0.1)"/><path d="M92.55,119.2c-1.66.57-2.91,2.06-4.75,1A3.37,3.37,0,0,1,92.55,119.2Z" transform="translate(0.1)"/><path d="M115.43,170.89a9.1,9.1,0,0,1-1.22,5.19C113.65,175.15,113.77,170.76,115.43,170.89Z" transform="translate(0.1)"/><path d="M109,151.48a2.52,2.52,0,0,1-2.68-.47c1.05-.91,4.33-1,5.41-.07C111.43,151.17,109,151.85,109,151.48Z" transform="translate(0.1)"/><path d="M109.79,163.57a5.33,5.33,0,0,1,2.63-3.37C112.77,161.79,110.88,165.51,109.79,163.57Z" transform="translate(0.1)"/><path d="M104.54,161.89c-1.63-2.73,2.22-2.32,2.3-2.49Q106.61,161.93,104.54,161.89Z" transform="translate(0.1)"/><path d="M160.3,131q1.12-2,2.88-.88-1.33.88,0,1.79Q161.41,132.9,160.3,131Z" transform="translate(0.1)"/><path d="M118.6,137.77a2.51,2.51,0,0,1,2.55.43c-1.15.85-4.28.9-5.36,0C116.07,138,118.6,137.5,118.6,137.77Z" transform="translate(0.1)"/><path d="M126.13,136.88c1.58,1.63-1.32,2.64-2.56,2.76C122.62,139.72,126,137,126.13,136.88Z" transform="translate(0.1)"/><path d="M116.94,189.15q2.61,2.27-.26,4.18Q114.72,189.7,116.94,189.15Z" transform="translate(0.1)"/><path d="M109.25,169.43c0-.06-2.31,3.79-2.21,2.75C107.22,170.42,107.76,167.21,109.25,169.43Z" transform="translate(0.1)"/><path d="M117.43,131.52c0-2.14,2.84-.39,3.11-1.15C120.35,133.4,119.55,131.49,117.43,131.52Z" transform="translate(0.1)"/><path d="M110.6,155.12c-1.31-.6.86-2.58,1.81-2.39C113.61,153,111,155.13,110.6,155.12Z" transform="translate(0.1)"/><path d="M103.84,152.75c.51,2-2.59,1.82-3.51.87Z" transform="translate(0.1)"/><path d="M118.42,172.51q1.5,3.15-.75,3.34A3,3,0,0,1,118.42,172.51Z" transform="translate(0.1)"/><path d="M103.64,134.11q-1.3,2.06-2.26,0Q102.3,132.26,103.64,134.11Z" transform="translate(0.1)"/><path d="M123.17,151.5a1.41,1.41,0,0,1,1.74.49,2.87,2.87,0,0,1-3.45,0C121.56,151.92,123.17,151.13,123.17,151.5Z" transform="translate(0.1)"/><path d="M87.71,138.07c-1.46,2-1,2-2.46-.06Q87.11,136.7,87.71,138.07Z" transform="translate(0.1)"/><path d="M80.35,143.33q.67,2.17-1.61,1.59C77.77,142.27,79.47,144.05,80.35,143.33Z" transform="translate(0.1)"/><path d="M103.61,165.49q-1.36,1.64-2.25-.1Q102.4,163.72,103.61,165.49Z" transform="translate(0.1)"/><path d="M105.54,135.21C105,135.21,104.74,133.64,105.54,135.21Z" transform="translate(0.1)"/><path d="M85,151.22q-.61,2.1-1.88.72Q84.19,149.58,85,151.22Z" transform="translate(0.1)"/><path d="M121.8,145.06q-1.36,1.82-2.26,0Q120.57,143.62,121.8,145.06Z" transform="translate(0.1)"/><path d="M102.28,147.67h-3A1.88,1.88,0,0,1,102.28,147.67Z" transform="translate(0.1)"/><path d="M149.88,130.13c0-.07-.75,2.22-.94.77C148.48,127.43,149.85,130.13,149.88,130.13Z" transform="translate(0.1)"/><path d="M115.17,144.28C114.39,144.23,114.38,143.06,115.17,144.28Z" transform="translate(0.1)"/><path d="M120.31,155.74q1.86.89-.22,1.9Q118.88,156.81,120.31,155.74Z" transform="translate(0.1)"/><path d="M145,145.22c-.56,1-1.81,1-2.73,0Z" transform="translate(0.1)"/><path d="M117.41,150.26c-.15.1-1.94,1.8-1.77.42C115.78,149.59,117.05,149.3,117.41,150.26Z" transform="translate(0.1)"/><path d="M126.5,155.11a1.71,1.71,0,0,1-2.23-.35C124.16,154.08,126.55,154.28,126.5,155.11Z" transform="translate(0.1)"/><path d="M126.78,140.42a2.11,2.11,0,0,1,3.1,0Q125.65,139.26,126.78,140.42Z" transform="translate(0.1)"/><path d="M74.76,145.06c.07-1,.31-2.25,1.55-1.42A3.92,3.92,0,0,1,74.76,145.06Z" transform="translate(0.1)"/><path d="M103.8,164.42q.67-1.79,1.24.14Q104.57,166,103.8,164.42Z" transform="translate(0.1)"/><path d="M93.69,145.86q-.76,1.79-1.18.06Q92.8,144.38,93.69,145.86Z" transform="translate(0.1)"/><path d="M74.93,156.11q-.94,1.63-1.25-.07Q74.28,154.39,74.93,156.11Z" transform="translate(0.1)"/><path d="M126.13,136c0,1.43-1.88,1.7-2,.27Q126.88,136.69,126.13,136Z" transform="translate(0.1)"/><path d="M119.84,201.68q-.9-1.46.36-1.53Q121.28,201.72,119.84,201.68Z" transform="translate(0.1)"/><path d="M76.52,181.93q-1.6-.63,0-1Q78.24,181.33,76.52,181.93Z" transform="translate(0.1)"/><path d="M111.23,194.39a1.22,1.22,0,0,1,0-1.66C111.83,192.94,111.91,194.4,111.23,194.39Z" transform="translate(0.1)"/><path d="M82.18,145.14q.54,1.82-.7,1.63C81.18,144.14,81.61,146.36,82.18,145.14Z" transform="translate(0.1)"/><path d="M80.38,143.36l.29-1.94C82.12,143.17,80.82,142.35,80.38,143.36Z" transform="translate(0.1)"/><path d="M136.63,137.66q1.32.66-.14,1C135.91,138.69,135.41,136.9,136.63,137.66Z" transform="translate(0.1)"/><path d="M121.63,135a1.37,1.37,0,0,1,0-1.75C122.21,133.52,122.35,135,121.63,135Z" transform="translate(0.1)"/><path d="M120.56,161.85l-.45,1.77C118.91,161.49,120,162.81,120.56,161.85Z" transform="translate(0.1)"/><path d="M119,170.86l.1,1.89Q117.61,171,119,170.86Z" transform="translate(0.1)"/><path d="M130.16,133.28c-2.49-1.16-6.08-3.73-2.09-5.71C133.5,124.88,135.25,133.87,130.16,133.28ZM128,130.13a2.59,2.59,0,0,0,3.41,1C132.94,127.39,129,128.71,128,130.13Z" transform="translate(0.1)" fill="#fff"/><path d="M131.7,136.7c1.22-2.94,2.83-.6,3.47-.8A3.62,3.62,0,0,1,131.7,136.7Z" transform="translate(0.1)" fill="#fff"/><path d="M123.12,131.39q-.86-1.77.43-2.58C124.07,128.65,124.64,131.48,123.12,131.39Z" transform="translate(0.1)" fill="#fff"/><path d="M126.06,133h-2C124.85,132,125.4,132,126.06,133Z" transform="translate(0.1)" fill="#fff"/><path d="M128,130.13c1-1.42,5-2.74,3.41,1A2.59,2.59,0,0,1,128,130.13Z" transform="translate(0.1)"/></svg>