<svg xmlns="http://www.w3.org/2000/svg" viewBox="0 0 216.71 216.71"><title>logoFonAikido</title><g id="ca1236da-c873-4692-98aa-2cd5704215fd" data-name="6d7bf676-1074-42f6-a7ee-054a5f946551" style="opacity:0.14"><circle cx="108.35" cy="108.35" r="108.35"/><path d="M120.52,98.65q-1.44-2.11-2.82,1.54a1.82,1.82,0,0,1,2,.48c-4.32,1.38-3.53-2.12-3.53-4.9,6.83,5.55-4.7-5.9-.69,1.55-.88.49-5.24-1.42-7.12.06A3.91,3.91,0,0,1,111.22,99c-1.92-.94-4.64,1.69-6,1.42q-.53.8,1,1.15a5.09,5.09,0,0,1-4.1-.71c-.18.39,2.49,2.37,2.5,2.54-2.17-1.72-3.35.28-5.4,2.59-2.44-2.5-6.61-3.46-10.6-4.12.77-1.49,4.18-2,4.09-3.23-4.13,0-13.4-4.08-15.39.29-1.72,3.8,6.57,9.66,9.23,10.66,0-1.66,3.12,2.64,4.13,3.45.94-3.26,12-3,15.39-4.89,1.71-.94,11.1-7.21,5.45-7.93,2.53-1.28,3,.74,5.35,2-.16,1.18-6.22,1.24-2.24,3.57-.32.75-6.39,3.27-8.4,4q0,1.18,1.71.67-3.22-1-2.7.85c8.88-1.6,7.43-1.77,11.38,5.22,2.4,4.24,6.87,7,9.21,11.51-28.73,2.63-50.19,22.6-52.38,45-2.09,21.36,14.07,37.32,15.05,38.26C102.31,224.5,119,225,122.74,225c-63-5.72-113.57-63-94.67-127.55,8.11-27.74,29-50.32,55-62.38,26.73-12.41,62.32-17.58,84.38,5.87a5.85,5.85,0,0,1-4,.14c0-3,7.41,5,7.44,5,4.57,5.64,6.05,15.14,6.73,22.1.37,3.78-.91,35.22-7.58,29.24-1,2,1,2.84,2.17,2.54-2.86,3.43-3.6-2-2,4.26-3.8-1.23-5.68-6.82-8.25-9.78-.68.91,1.87,3.24-1.2,1.62-.38,1.25,2,4.93,1.39,2,2.1,1.2-.32,1.9.54,3.32q-.7-.83-1.31,0c0-.81-1.54-2.81-2.91-3.78-.22,1.12,1.37,4.41.85,4.78-1.13-1.82-3.55-3.87-2.74-5.75-1.6-.82-.46-2.64-2.53-4.68,2,2-6.73-.4-4.3-1.1a15,15,0,0,1,.78,5.08c-.67-1.1-4.11-10.12-6-8.69,3.37,4.62,3.5,9.07,4.26,14.7-2.53-.37-.2-2-1.67-2.92a3,3,0,0,0-.25,3.21c-2.07-1.29-.56-1.29-1.8-2.7a5.2,5.2,0,0,1-1.06,3.7c-.66-1.26-1.61-.51-3.36-.56,1-4-.25-6.22-2-10.31,2.3.44,3.16,5.32,3.59,6.63,1.56-1.39.39-1.52.85-3.68,1.44,1.5,1,.87.3-1.16,1.8.34,1.82,3.56,2.1,4.71,3.43-.58-2.32-8.8-2.33-8.83-1-1.49-2.09-1.32-3.19-2.87,3.68,0-7.43-9.75-8.34-10.91-.14,3-5.21-7.05-5.61-3.38-1.08-1.35-.43-1.36-.23-3-1.22.37-4.43-2.39-6-3.36a1.79,1.79,0,0,1,1.29-.54c-.31-1.59-6.12-2.46-1.74-.37-2.89,2-1.89.19-4.6-.94.09.71,3,4.47,3.26,3.89-.28.58-2.25.24-2.71.29,2.48,2,.22.24.69,3.51-2.21-1.15-.93,1.65-3,.81.79-1.28-1.18-1.13-1.93-2.91-1.21,1.52-1.41,1.5-3.08.33,2.39-.45,1.48-1.61,4.21-1.61-.8-2.84-4.59,1.88-4.68.39q-.46-2.27,2.32-1.88c-4.3-9.36-5.76,6-4.63,9.27,4.11-.43,5.52.77,8.38-3.1,2.27,2.55-.52,3.12-2.22,5.11.54.28,3-.24,3.9,0,0,.32-1.36.83-1.71,1.27,2.3,1.07,3.74-1.81,2.6-3.53a5,5,0,0,1,4.62,1.42c-2.33-3.3,2.3-.17,3.28,1.34,1.7,2.61,2,7.08,2,9.72a3.34,3.34,0,0,1-1.69-1.63c.65,2,1.21,4.14-.43,5.87-.84-1,1-2.79-.26-3.1q.21,2-1,1.89c-.87-4.41-1.75-2.83-3.62-3.31,0,2.49,3,3.35-.87,3.79,1.57,1.73-2.24.51.81,1.76q-.37.95-1.45.1A40.59,40.59,0,0,0,120.52,98.65Zm2.17-69.73c-.46,5.22,2.71,9.44,2.28,14.51-.25,3-2.17,4.73-2.28,6.8-.72,13,9.91,2.25,5.86-1.23-.55,4.61-.68,4.81-3.37,6-3.9,1.75-.86-4.24-.9-4.67.16,1.84,3.09-3.39,3.21-4.45.34-3-2.08-7-2.72-9.84,6.37.69,3.8,10.08,4.81,13.42,1.55-.22-.62-2,1.7-.52A6.86,6.86,0,0,1,129.66,46c2.2-.31,2.66-3.3,2.59-3.75.16,1-.61,3.51.15,3.88,2-3.13,1.47-3,.54-6.69,7.55,4.62-.08-9-3-4.89a5.1,5.1,0,0,1,3.81,3q-1.56,1-2.76-1.21c-.7.68,1.35,2,.11,3.67-.86-4.54-4.53-8.1-8.41-11.08Zm-15.29-1a11.57,11.57,0,0,0,4.22,9.76c.6-.62-.29-1.78-.36-2.47A2.4,2.4,0,0,1,113,36.55C115.29,35.09,107.31,28.89,107.4,27.89Zm27,21.82c.89-.32-.26-1.32-.75-.61.48-3.07-1.51-.07-2.6,1.09.16.26,3.44.43,4,.62-1.79,1.85.11,4.2-2.85,2.1.41,3,8.82.17,2.84-2.5q1.84-.13,1.39-1.14Zm5.06,8.8c2.23-1.23,4.57-1.91,4.09-5.11-2.66,4.53-4.41,2.83-5.11,8.12,1.5.3.06-1.73,2.35.27.23-2.3,2.32-2.67,2.53-4.9a2.77,2.77,0,0,1-3.87,1.63Zm10.69,22.07c.71,0,5.67-2.13,2.3-2.79q.55,1.86-.71,1.85c.06-.65-1.8-4.89-2.66-4.89-2,0,1.83,5.22,1.9,4.38Q149.32,77.2,150.15,80.58ZM99.93,52.46c-.24,1-4.81,11.58-2.18,12.39C93.91,63.65,104.57,52.22,99.93,52.46ZM104.68,47c1.34.79,6-3.29,5.07-5.33-1.8,1.08-6.37,8.29-7,8.47A3.14,3.14,0,0,0,104.68,47Zm38,16.25c-1.51,0,1.75-3,1.75-4.14-1.82.3-4.12,5.11-3.42,7q2.54.66,1.66-2.87Zm-2.51-12.61c.48-.15-.09,5.26-3.17,2.66,0,3.83,2.81.83,4.72-.3Zm-42.93,26c1.7-.9,2.68-6,1.17-7.3Zm57.93,8.68A11.45,11.45,0,0,0,159,90.82c.46-2-2.68-4.3-3.83-5.52ZM135.74,42.81c-.07.15-2.55,5.18.29,4.91-.59-3,.08-2.57.81-4.35q-1.21.59-1.36-1.76C134.45,42.56,134.45,42.6,135.74,42.81Zm6.21-6.88c-1.94-2.55-5-2.75-7.52-4.32-.36.71,7.41,4.27,7.51,4.32ZM91.66,113.21c2.51.82,5,2.08,7.8.59C96.8,113.49,94.15,114.25,91.66,113.21ZM147.34,88.4c.13.59-.85-4.41-1.37-4.06C146.45,86,143.08,86.85,147.34,88.4ZM134,58.7c-.06.11.78,3.64.79,3.65.46-2.48,2.23-.46-.78-3.65Zm-1,3.21c0-.16-.31-3.88-.67-3q-1.58,1.89.66,3Zm22.71-21.47c.59-1-2.45-1.78-3.27-1.19a4.76,4.76,0,0,0,3.26,1.19ZM137.24,56.07c-1.43.6,1.08,1.63-.8,2q.51-3.34-1.9-2.18a7.5,7.5,0,0,0,2.7,2.7Zm-48,39c-.35,0-3,.06-3,.7,5.46,0,3.72-1.88,3-.66Zm24.13-12.49q.22-3.21-1.75-2.34A2.46,2.46,0,0,0,113.37,82.58Zm31.76-45.41q-.6,2.78,5.15,1.69A28.69,28.69,0,0,1,146,36.23Q146.68,37.93,145.13,37.17Zm-34.68.55q-2.48,1.72-.35,3.46A9.69,9.69,0,0,1,110.45,37.72ZM144.2,85.54c.45-.81-.05-1.64-1.84-2.81ZM100.62,99.91q-.83-1.38-3,.16a.94.94,0,0,1,.58,1.36Zm15.83-41.26q-2.24.86.33,1.49Q118.21,59.49,116.45,58.65Zm.32,21.1L114.85,81q4.5,1.2,1.9-1.22Zm36.6,1.41c0,1.45.91,2.44,2.2,2.23ZM101.61,97.27,99.16,97C99.06,98.16,101.23,97.65,101.61,97.27Zm16.2-13.53c-.8.64.9,2.28,1.56,1.69ZM81.16,94.82c.68.58,2.57-2.38,2.25-2.65Zm22-43.86-1.86-.39q.39,2.82,1.91.38Zm53.12,43.13c.91-.52-.58-2-1.22-2.1ZM121.45,60.24q1.12-.08.36-1.64Q119.94,58.81,121.45,60.24ZM95,100c.67.68,1.9-.8,1.82-1.56Zm-8.48-10.5q-1.23-1.34-2.28,2Q85.55,92.8,86.54,89.46Zm54.39-40.21c-.12-1.22-.39-1.47-1.71-1.63Z" transform="translate(-21.65 -16.65)" style="fill:#fff"/><path d="M143,183.5c2.71,0,.74,3.68-.66,3.34a2.73,2.73,0,0,1-.66-1.77c-1.46,1.32-3.78,5.73-2.14,7.19a1.73,1.73,0,0,0,1.24-1.79,25,25,0,0,0,2.66,1.18c.37-1,4.91-8.41,5-7.06.22,3.41-6.18,10.89-2.32,14.08a6.64,6.64,0,0,0,.53-2.45c5.45,1.8,3,17.75,2.38,21.67-1.23-.08.46-2.67-1.45-2.66-2.17,0-.24,7-1.62,8.56-.72-1.05.08-4.71-1.07-4.7-.56,5.24-1.13,4.8-4.4,2.67s-1.53-.69-1.53-6.7c-1.76,1.49-7.43,8.3-7.43,2.2.74-.1.74.86,1.27,1.38,0,0,.07-8.71.37-8.47-4.85-3.82-7.78,7.35-12.26,7.63a23.08,23.08,0,0,1,1.39-4.08,3.77,3.77,0,0,1-2.24-.51c-.78-1.59,3.42-3.6.7-5.23-2.38-1.42-2.22,1-3.68,1-1,0-2.18,4-4.71,2.18a12.55,12.55,0,0,0,3.2-5.87c-2.84.77-4.83,3.18-7.78,3.51.31-.8,1.77-2.29,1.36-3.21s-2.92,2.08-4.4.92c-1.21-.94,3.41-2.77,2.62-4.53-.34-.76-10.08,4.51-11.14,3.64q.87-.91,1.72-1.84c-2.66-1.17-.78-2.25.7-4.64-2-1.85-4.17,3.81-2.53-2-.38-.12-4.05,4.38-6.47,4.11,2.62-3.5,6.14-11.21,6.41-15.87-1.24-.16-3.79,6.07-3.93,7.77-6.64-3.11,8.31-22.9,8.68-26.32-.92-.31-6.52,7.09-6.43,7.62-1.77-10.64,11.34-16.59,15.56-23.95-2.89,0-16.12,12.31-16.68,11.62,2.68-2.07,10.18-9.75,7.69-10.18.56-1.29,10.31-5.65,12.19-6.72-4.32-2.33-9.73,5.71-13.87,5.69a2.4,2.4,0,0,1,1.7-2,1.71,1.71,0,0,1-1.76-.84c.1-1.8,12.09-3.3,9.8-5.81-1.1,1.16-3.94,1.18-5.2.33.89-3.86,16-3.93,17.63-6.47a4.41,4.41,0,0,1-2.2-.8c3.15-1.32,8.24,1.3,11-.83a4.3,4.3,0,0,1-3.53-2.19c5.59-2.94,15.56-.06,21.4-1.07,1.81-.31,1.1-2.55,3.78-2.55s4.88,2.74,7.68,2.28c-.95-3.46,7.35,2.85,8.63,3.91,2.33,1.93,10.17,9,8.62,11.72-1.51-.51-1.17-2.47-3.51-1.89.29,1.13,2.69,4.23,3.48,5.22.78-1.47,4.08-2.23,4.09,0q-1.34-.16-2.67-.35,1.23,1.38-.4,2.4c1.9,0,6.09.63,4.21-2.61,6.07,1.14,12.39,4.72,13.11,10.91.25,2.17.79,12.88-.54,14.58-1.43-1.54-.39-4.18-2.32-5.31-1.26-.74-4-.17-5.48-.75a43.16,43.16,0,0,0-8.57-2c-.16.62,1.09.89,1.62,1.3-7.1,5.36-24.8-4-32,2.8,2.34,2.82,11.43-.74,15.16-.24-3.73,3.52-9.5,2.32-13.26,6.16-2.24,2.29,3.33.75.44,4.2-1,1.22-2.93,1.5-4.34,2.32-1.25-2.58,3.48-1.57,3.18-4-.05-.44-8.31,2.71-6.45,6Zm-42.14-19c1.63.1,2.5-3.62,4.18-3.79C102.18,161,100.54,164.08,100.86,164.52Zm47.7-6c0-1.63,2.38-1.07,3.47-.37a7,7,0,0,0-1.82,1.25c0,1.56,5.61,2.13,6.63,1.48a4.29,4.29,0,0,0-2-1c8.06-3.3,2-3.8,3.6-8.36,1.56,1.5.51,1.89,2.93,0,1.28,5.36,8.74-2.4,8.37-2.75-.46,1.69-12.94-1.43-14.79-1.63-2.85-.31-4.43-.92-6.87-.34-2.09.5-2,1.87-3.81,2.41-2.7.82-5.61-.92-8.08.81a24.35,24.35,0,0,1,6.82,2.08c-1.82.07-17.25-1.39-18.25.46,0,.08,18,3.1,18.23-.48,2,2,3.72,3.37,5.62,5.62-2.63.32-2.66.73,0,.86,0-.23-3.76,2.9-2.59,2.79S150.15,160.16,148.57,158.53Zm-39.2,3.76c-2.94-.82-5.64,4.38-5.44,6.13C104.74,165.58,108.09,164.08,109.37,162.29Zm35.18,39.36a26.86,26.86,0,0,0-1.06-6.25c-1.19.19-1.36,6.14,1.09,6.21-1.08,1.62-4.49,5.76-2.06,8a72.57,72.57,0,0,0,3.69-7.9C146.51,200.27,144.88,201.45,144.55,201.65Zm4.68-39.54c-6.91.88-13-2.33-19.34-2.12-1,0-10.48,3.37-6.06,4a60.07,60.07,0,0,1,7.25-2.11c3.84-.18,2.86.7,5.55,1.13,6.6,1,10.49-1,15.7-1a2.11,2.11,0,0,0-3-.06l-.12.12ZM175,166.59c.09-1.43-23.29-3.62-24.38-1.87,6.07,2.21,17.92,2.72,24.38,1.83Zm7.24.61a2.16,2.16,0,0,0,3.16-.72c-3.83-2.89-11-5.47-15.73-2.92.88.46,14.41-.18,12.57,3.61Zm-50.57,27.72c2.56-.86,5.1-7.44,5.39-10.37-2.17.69-6.25,8.25-5.39,10.34Zm54.12-30.75c.24.41,6.37,6.83,6.5,3.46.08-2.13-5.27-3.49-6.5-3.49Zm-8.83-9.29.32,1.73a15.39,15.39,0,0,1,5-2.76,3.73,3.73,0,0,0-4.86.91q-1.2-.73.32-2.27c-1.22-.46-1.52,1.13-3.4.83a3.69,3.69,0,0,1,1.28,2.54Zm-20.07,13.58c.23-2.16-7.88-1.48-9.29-1.72C149.12,170,154,168.65,156.85,168.46Zm28.66-11c0-1.29-2.12-.28-1-2.39-1.9-.68-5.11,1.9-6.66,3,2.74.31,5-.28,7.66-.56Zm-14.21,4.6c0,1.53,4.84-1.57,3.47-1.61-1.62,0-10,1-10.14,2.38-.07.64,5.94-.72,6.67-.72ZM95.67,178.9c-.87,1.76-4.46,8.25-3,9.8C94.24,186.95,96.18,180.89,95.67,178.9Zm36.7-24.67c1,1.48,5.2,3.32,6.71,1.83C136.89,155.72,134.35,153.71,132.37,154.23Zm-3.79,21.85c1.25,2.2-1.22,1.57-.86,2.2,2.14,3.62,4.65-2.75.86-2.2Zm28.27-12.18c1.35-.08,4.84-.51,5.92-1.22-2.45-1.64-4.21-.47-5.91,1.22ZM115,140.9a3.37,3.37,0,0,0-4.68.89l-.07.11c1.84,1,3.1-.49,4.76-1.05Zm22.89,51.69c-1.66-.13-1.78,4.26-1.22,5.19a9.1,9.1,0,0,0,1.22-5.24Zm-6.43-19.46c0,.37,2.46-.31,2.73-.54-1.08-.89-4.35-.84-5.41.07A2.52,2.52,0,0,0,131.45,173.13Zm.82,12.09c1.1,1.94,3-1.78,2.63-3.37a5.33,5.33,0,0,0-2.66,3.37ZM127,183.54q2.07,0,2.3-2.49c-.12.18-4-.23-2.33,2.49Zm55.73-30.89q1.11,1.9,2.86.91-1.31-.91,0-1.79Q183.87,150.65,182.75,152.65ZM141,159.42c0-.28-2.54.2-2.82.38,1.09,1,4.21.9,5.36,0A2.51,2.51,0,0,0,141,159.42Zm-1.66,51.38q-2.22.55-.26,4.18,2.88-1.91.26-4.18Zm-7.69-19.72c-1.49-2.22-2,1-2.21,2.75-.1,1,2.25-2.81,2.21-2.75Zm1.35-14.3c.37,0,3-2.16,1.81-2.39-.95-.2-3.12,1.79-1.81,2.38Zm-6.76-2.37-3.51.87c.92.94,4,1.09,3.51-.88Zm14.58,19.76a3,3,0,0,0-.75,3.34q2.25-.19.75-3.35Zm-14.78-38.4q-1.34-1.85-2.26,0,1,2.06,2.26,0Zm19.53,17.39c0-.37-1.61.42-1.71.52a2.87,2.87,0,0,0,3.45,0,1.41,1.41,0,0,0-1.74-.53Zm-32.53-17.58c-.4-.91-3,1.53-4.21,2.4C111,157.65,111.61,157.59,113.08,155.58Zm13,31.56q-1.21-1.77-2.25-.1Q124.7,188.78,126.06,187.14Zm-18.61-14.27q-.8-1.64-1.88.72Q106.82,175,107.45,172.87Zm36.82-6.16q-1.23-1.44-2.26,0,.89,1.82,2.24,0Zm-19.53,2.61a1.88,1.88,0,0,0-3,0Zm47.6-17.54s-1.48-3.34-.94.77c.17,1.44.93-.84.93-.77Zm-29.56,25.61q-1.43,1.07-.22,1.9,2.06-1,.2-1.9Zm24.67-10.52h-2.73C165.62,167.92,166.87,167.89,167.45,166.87Zm-27.57,5c-.36-1-1.63-.67-1.77.42-.19,1.42,1.6-.28,1.75-.38Zm9.09,4.85c0-.83-2.34-1-2.23-.35a1.71,1.71,0,0,0,2.21.39Zm-22.76,9.35q.77,1.56,1.24.14-.53-1.93-1.2-.14Zm16.08,37.26q1.44,0,.36-1.53Q141.39,221.86,142.29,223.33ZM99,203.58q1.72-.6,0-1Q97.37,202.95,99,203.58ZM133.68,216c.68,0,.59-1.46,0-1.66A1.32,1.32,0,0,0,133.68,216Zm25.4-56.73c-1.22-.76-.72,1-.14,1q1.51-.34.14-1Zm-15-2.68c.72,0,.57-1.47,0-1.75a1.22,1.22,0,0,0-.24,1.79s.07.08.24,0Zm-2.63,35.88q-1.38.17.1,1.89Z" transform="translate(-21.65 -16.65)" style="fill:#fff"/><path d="M128.89,107.85c-.2-1.89-1.77-5.14-3.4-6.16,2.86-1,1.21,1.35,3.56-1.82,1.3,1.44,5.63,1.39,5.18,5.43q-1.68-1.34-1.27,1c-2.66-3.82-.33.12-2.34-2.38A4.76,4.76,0,0,0,128.89,107.85Z" transform="translate(-21.65 -16.65)" style="fill:#fff"/><path d="M154.87,216.65c-3.06,2.39.83,6.83-5.63,6.2.28-2.63,1.33-10.91,2.46-13,2.24,3.17-1.66,9.55.06,11.55C152.84,220.13,152.79,215.51,154.87,216.65Z" transform="translate(-21.65 -16.65)" style="fill:#fff"/><path d="M124.45,111.22c-1.78-1.28-2.37.4-2.9,1.71a17.85,17.85,0,0,1-1.83-2.28c-1.35,3.09-3-1.88.6-2.26,2.06-.21,3.64-1,5.62.57C124.67,111,124.45,108.17,124.45,111.22Z" transform="translate(-21.65 -16.65)" style="fill:#fff"/><path d="M87.75,106.06c1.26.46,10.77,1.62,10.56,1.19-2.48,1.58-13.68,2-14.42-.72,2.86-1,.43-3.66,1.68-6C86,103.65,85.69,104.29,87.75,106.06Z" transform="translate(-21.65 -16.65)" style="fill:#fff"/><path d="M83.45,98.89l-1.79.18q1.2.64.47,1.29c-2-1.26-1.48-1.16-3.64-.5C77.29,100.23,85.17,95,83.45,98.89Z" transform="translate(-21.65 -16.65)" style="fill:#fff"/><path d="M140.72,102.65c.79,2.31,1.86,4.26,2.43,6.43q-.89-2-1.13,0C140.72,108.88,140.66,103,140.72,102.65Z" transform="translate(-21.65 -16.65)" style="fill:#fff"/><path d="M128,94.65l1,4C127.45,99.38,126.11,96,128,94.65Z" transform="translate(-21.65 -16.65)" style="fill:#fff"/><path d="M153.33,196.65a1.76,1.76,0,0,1-.54,2.15c-.47-.47-1.14-4.43,0-4.39C153.68,194.41,153.3,196.65,153.33,196.65Z" transform="translate(-21.65 -16.65)" style="fill:#fff"/><path d="M139.24,111.73c-.61,1.66-1,3.87-2.59,4.87C136.69,115.55,137.68,110.8,139.24,111.73Z" transform="translate(-21.65 -16.65)" style="fill:#fff"/><path d="M109,73.24c1.28,2.18,1.22.84,1.22-1.19,2.48.36,0,2.59-.75,3.18Q107.7,73.76,109,73.24Z" transform="translate(-21.65 -16.65)" style="fill:#fff"/><path d="M152.37,126.13a2.39,2.39,0,0,1-3.13.25C149.73,125.56,151.9,125.15,152.37,126.13Z" transform="translate(-21.65 -16.65)" style="fill:#fff"/><path d="M99.16,145.3a3.46,3.46,0,0,1,3.78-1C103,145.08,99.69,146.24,99.16,145.3Z" transform="translate(-21.65 -16.65)" style="fill:#fff"/><path d="M154.91,108.49c-.2-.23-2.13-4.29-.9-4.57Z" transform="translate(-21.65 -16.65)" style="fill:#fff"/><path d="M148.77,193q-.82,2.44-1.23-.07Q148,190.74,148.77,193Z" transform="translate(-21.65 -16.65)" style="fill:#fff"/><path d="M150.94,201q1-2.27,1.36.09Q151.85,203.52,150.94,201Z" transform="translate(-21.65 -16.65)" style="fill:#fff"/><path d="M120.52,98.65q1.75-3,2.59,1.44Q120.38,97.2,120.52,98.65Z" transform="translate(-21.65 -16.65)" style="fill:#fff"/><path d="M150.45,112.65q-.19,1.71-1.6,1.86C148.72,113.76,149.64,112,150.45,112.65Z" transform="translate(-21.65 -16.65)" style="fill:#fff"/><path d="M127.19,108.65c-1.28-.3-1.08-1.39-1.31-2.26C126.55,106.29,127.2,107.43,127.19,108.65Z" transform="translate(-21.65 -16.65)" style="fill:#fff"/><path d="M110,101.21l-2.71.89C107.45,101.84,109.73,99.92,110,101.21Z" transform="translate(-21.65 -16.65)" style="fill:#fff"/><path d="M128,80.38q2.12-.15,1.61,2.19C129,82.65,128.45,81,128,80.38Z" transform="translate(-21.65 -16.65)" style="fill:#fff"/><path d="M134.58,110.7c1.45.64,1.58,1.48.68,2.45Z" transform="translate(-21.65 -16.65)" style="fill:#fff"/><path d="M129.53,83.65q1.62,1.25.56,2.43C129.67,85.57,128.81,84,129.53,83.65Z" transform="translate(-21.65 -16.65)" style="fill:#fff"/><path d="M141.58,113.85a1.81,1.81,0,0,1,.2-2.47A1.85,1.85,0,0,1,141.58,113.85Z" transform="translate(-21.65 -16.65)" style="fill:#fff"/><path d="M130.23,113.14l-.66-3.14C130.74,111.07,130.45,112.12,130.23,113.14Z" transform="translate(-21.65 -16.65)" style="fill:#fff"/><path d="M101.09,105.48c.12.74-.74,1.3-2.49,1.3Z" transform="translate(-21.65 -16.65)" style="fill:#fff"/><path d="M141,189.59q-.52-1.85.87-1.21Q142.21,190.09,141,189.59Z" transform="translate(-21.65 -16.65)" style="fill:#fff"/><path d="M160.23,102.65l1.13,1.74C160.55,104.92,159.58,103.08,160.23,102.65Z" transform="translate(-21.65 -16.65)" style="fill:#fff"/><path d="M97.81,154.3q-.36,1.35-1.48,1.28C96.45,155,97.17,153.81,97.81,154.3Z" transform="translate(-21.65 -16.65)" style="fill:#fff"/><path d="M119.72,209.36q-.4,1.23-1.47,1.07C118.25,209.87,119.39,208.73,119.72,209.36Z" transform="translate(-21.65 -16.65)" style="fill:#fff"/><path d="M135.61,105.88l-.63-1.82C135.55,104.24,136.58,105.53,135.61,105.88Z" transform="translate(-21.65 -16.65)" style="fill:#fff"/><path d="M122.69,29c3.88,3,7.54,6.54,8.42,11.11,1.24-1.63-.81-3-.11-3.67q1.2,2.25,2.76,1.21a5.1,5.1,0,0,0-3.81-3c2.92-4.15,10.55,9.51,3,4.89.93,3.61,1.34,3.69-.54,6.69-.76-.37,0-2.92-.15-3.88.07.45-.39,3.44-2.59,3.75A6.86,6.86,0,0,0,131.29,49c-2.32-1.44-.15.3-1.7.52-1-3.34,1.56-12.73-4.81-13.42.64,2.79,3.06,6.88,2.72,9.84-.12,1.06-3.06,6.28-3.21,4.45,0,.43-3,6.43.9,4.67,2.69-1.21,2.82-1.41,3.37-6,4.08,3.51-6.51,14-5.86,1.23.1-1.92,2.23-2.9,2.57-5.42C126,39.58,122.21,34.42,122.69,29Z" transform="translate(-21.65 -16.65)"/><path d="M107.4,27.89c-.12,1.33,7.89,7.2,5.66,8.7a2.4,2.4,0,0,0-1.79-1.37c.07.69,1,1.85.36,2.47A11.57,11.57,0,0,1,107.4,27.89Z" transform="translate(-21.65 -16.65)"/><path d="M134.4,49.72l2-.43q.45,1-1.39,1.14c6,2.66-2.48,5.18-2.84,2.5,3,2.1,1.05-.25,2.85-2.1-.52-.19-3.8-.36-4-.62,1.06-1.12,3.12-4.42,2.6-1.09C134.13,48.4,135.28,49.4,134.4,49.72Z" transform="translate(-21.65 -16.65)"/><path d="M143.16,57.26a2.77,2.77,0,0,0,.15-.37c-.21,2.28-2.29,2.53-2.53,4.9-1.9-1.66-1.19,0-2.35-.27.71-5.3,2.45-3.6,5.11-8.12.51,3.36-1.85,3.88-4.09,5.12" transform="translate(-21.65 -16.65)"/><path d="M99.93,52.46c4.64-.24-6,11.22-2.18,12.39C95.12,64,99.69,53.47,99.93,52.46Z" transform="translate(-21.65 -16.65)"/><path d="M104.68,47a3.14,3.14,0,0,1-1.89,3.14c.56-.17,5.1-7.36,7-8.47C110.68,43.72,106,47.8,104.68,47Z" transform="translate(-21.65 -16.65)"/><path d="M140.17,50.65,141.72,53c-1.92,1.13-4.72,4.13-4.72.3C140.08,55.92,140.64,50.52,140.17,50.65Z" transform="translate(-21.65 -16.65)"/><path d="M135.74,42.81c-1.29-.21-1.29-.25-.29-1.16q.14,2.35,1.36,1.76c-.76,1.85-1.36,1.51-.81,4.35C133.19,48,135.67,43,135.74,42.81Z" transform="translate(-21.65 -16.65)"/><path d="M141.94,35.93c-.1-.05-7.88-3.61-7.52-4.32C137,33.18,140,33.38,141.94,35.93Z" transform="translate(-21.65 -16.65)"/><path d="M91.66,113.21c2.49,1,5.14.28,7.8.59C96.66,115.29,94.18,114,91.66,113.21Z" transform="translate(-21.65 -16.65)"/><path d="M147.34,88.4c-4.26-1.55-.86-2.42-1.37-4.06C146.45,84,147.45,89,147.34,88.4Z" transform="translate(-21.65 -16.65)"/><path d="M155.72,40.44a4.76,4.76,0,0,1-3.27-1.19C153.27,38.65,156.31,39.48,155.72,40.44Z" transform="translate(-21.65 -16.65)"/><path d="M137.24,56.07v2.52a7.5,7.5,0,0,1-2.7-2.7q2.41-1.16,1.9,2.18C138.32,57.65,135.82,56.65,137.24,56.07Z" transform="translate(-21.65 -16.65)"/><path d="M113.37,82.58a2.46,2.46,0,0,1-1.75-2.34Q113.59,79.37,113.37,82.58Z" transform="translate(-21.65 -16.65)"/><path d="M145.13,37.17q1.54.76.92-.94a28.69,28.69,0,0,0,4.23,2.63Q144.53,39.95,145.13,37.17Z" transform="translate(-21.65 -16.65)"/><path d="M110.45,37.72a9.69,9.69,0,0,0-.35,3.46Q108,39.44,110.45,37.72Z" transform="translate(-21.65 -16.65)"/><path d="M100.62,99.91l-2.37,1.53a.94.94,0,0,0-.37-1.28l-.21-.08Q99.8,98.53,100.62,99.91Z" transform="translate(-21.65 -16.65)"/><path d="M81.16,94.82l2.29-2.65C83.73,92.44,81.84,95.4,81.16,94.82Z" transform="translate(-21.65 -16.65)"/><path d="M103.21,50.95q-1.52,2.43-1.86-.39Z" transform="translate(-21.65 -16.65)"/><path d="M95,100l1.82-1.56C96.92,99.16,95.69,100.65,95,100Z" transform="translate(-21.65 -16.65)"/><path d="M140.93,49.24l-1.72-1.59C140.54,47.77,140.81,48,140.93,49.24Z" transform="translate(-21.65 -16.65)"/><path d="M148.61,157.65c-3.79-4.48-6.73-6.53-12.42-7.67,2.29-1.6,5.57,0,8.08-.81,1.26-.41,1.44-2.12,3-2.41,3.08-.57,4.21,0,7.66.35,1.87.16,14.33,3.3,14.79,1.63.37.35-7.09,8.11-8.37,2.75-2.42,1.93-1.37,1.54-2.93,0-1.58,4.56,4.46,5.06-3.6,8.36a4.29,4.29,0,0,1,2,1c-.71.45-6.66.09-6.63-1.48a7,7,0,0,1,1.82-1.25A5.77,5.77,0,0,0,148.61,157.65Zm4-2.71c5.09.59,3.34-8.4-2.09-5.71-4,2-.4,4.54,2.09,5.7Zm1.54,3.42a3.62,3.62,0,0,0,3.47-.8c-.63.19-2.25-2.15-3.47.79ZM145.56,153c1.52.09,1-2.73.43-2.58q-1.28.79-.42,2.57Zm2.94,1.58c-.66-1-1.2-1-2,0Z" transform="translate(-21.65 -16.65)"/><path d="M149.2,162c-.78,3.34-10.62,1.36-13.23,1-5-.78,5.86-1.65-4.89-1.11a61.08,61.08,0,0,0-7.25,2.11c-4.48-.68,5.92-4.35,7-4.4" transform="translate(-21.65 -16.65)"/><path d="M175,166.55c-6.46.89-18.31.38-24.38-1.87C151.68,162.91,175.06,164.9,175,166.55Z" transform="translate(-21.65 -16.65)"/><path d="M182.2,167.17c1.83-3.77-11-2.75-12.57-3.64,4.84-2.62,11.79-.06,15.73,2.92a2.16,2.16,0,0,1-2.93.86Z" transform="translate(-21.65 -16.65)"/><path d="M176.92,154.84l-1.39,1a3.69,3.69,0,0,0-1.28-2.54c1.81.29,2.16-1.3,3.4-.83q-1.52,1.54-.32,2.27a3.73,3.73,0,0,1,4.86-.91,15.39,15.39,0,0,0-5,2.76Z" transform="translate(-21.65 -16.65)"/><path d="M156.85,168.46c-2.89.2-7.73,1.54-9.29-1.72C149,167,157.08,166.3,156.85,168.46Z" transform="translate(-21.65 -16.65)"/><path d="M185.51,157.51c-2.64.28-5,.87-7.66.65,1.61-1.18,4.62-3.77,6.66-3C183.39,157.22,185.51,156.22,185.51,157.51Z" transform="translate(-21.65 -16.65)"/><path d="M171.3,162.11c-.62,0-6.75,1.47-6.67.77.15-1.33,8.53-2.42,10.14-2.38C176.14,160.54,171.3,163.65,171.3,162.11Z" transform="translate(-21.65 -16.65)"/><path d="M139.39,210.8q2.61,2.27-.26,4.18Q137.17,211.35,139.39,210.8Z" transform="translate(-21.65 -16.65)"/><path d="M148.58,157.65c0,1.43-1.88,1.7-2,.27Q149.33,158.34,148.58,157.65Z" transform="translate(-21.65 -16.65)"/><path d="M142.29,223.33q-.9-1.46.36-1.53Q143.73,223.37,142.29,223.33Z" transform="translate(-21.65 -16.65)"/><path d="M99,203.58q-1.6-.63,0-1Q100.69,203,99,203.58Z" transform="translate(-21.65 -16.65)"/><path d="M133.68,216a1.22,1.22,0,0,1,0-1.66C134.28,214.59,134.36,216,133.68,216Z" transform="translate(-21.65 -16.65)"/><path d="M159.08,159.31q1.32.66-.14,1C158.36,160.34,157.86,158.55,159.08,159.31Z" transform="translate(-21.65 -16.65)"/><path d="M152.61,154.93c-2.49-1.16-6.08-3.73-2.09-5.71C155.95,146.53,157.7,155.52,152.61,154.93Zm-2.16-3.15a2.59,2.59,0,0,0,3.41,1C155.39,149,151.45,150.36,150.45,151.78Z" transform="translate(-21.65 -16.65)" style="fill:#fff"/><path d="M154.15,158.35c1.22-2.94,2.83-.6,3.47-.8A3.62,3.62,0,0,1,154.15,158.35Z" transform="translate(-21.65 -16.65)" style="fill:#fff"/><path d="M145.57,153q-.86-1.77.43-2.58C146.52,150.3,147.09,153.13,145.57,153Z" transform="translate(-21.65 -16.65)" style="fill:#fff"/><path d="M148.51,154.65h-2C147.3,153.65,147.85,153.65,148.51,154.65Z" transform="translate(-21.65 -16.65)" style="fill:#fff"/><path d="M150.45,151.78c1-1.42,5-2.74,3.41,1A2.59,2.59,0,0,1,150.45,151.78Z" transform="translate(-21.65 -16.65)"/></g></svg>